<svg xmlns="http://www.w3.org/2000/svg" x="0px" y="0px"
width="24" height="24"
viewBox="0 0 172 172"
style=" fill:#4a90e2;"><g fill="none" fill-rule="nonzero" stroke="none" stroke-width="1" stroke-linecap="butt" stroke-linejoin="miter" stroke-miterlimit="10" stroke-dasharray="" stroke-dashoffset="0" font-family="none" font-weight="none" font-size="none" text-anchor="none" style="mix-blend-mode: normal"><path d="M0,172v-172h172v172z" fill="#8ab082"></path><g fill="#ffffff"><path d="M143.33333,100.33333h-114.66667c-7.91917,0 -14.33333,-6.41417 -14.33333,-14.33333v0c0,-7.91917 6.41417,-14.33333 14.33333,-14.33333h114.66667c7.91917,0 14.33333,6.41417 14.33333,14.33333v0c0,7.91917 -6.41417,14.33333 -14.33333,14.33333z" opacity="0.35"></path><path d="M143.33333,50.16667h-114.66667c-7.91917,0 -14.33333,-6.41417 -14.33333,-14.33333v0c0,-7.91917 6.41417,-14.33333 14.33333,-14.33333h114.66667c7.91917,0 14.33333,6.41417 14.33333,14.33333v0c0,7.91917 -6.41417,14.33333 -14.33333,14.33333z"></path><path d="M143.33333,150.5h-114.66667c-7.91917,0 -14.33333,-6.41417 -14.33333,-14.33333v0c0,-7.91917 6.41417,-14.33333 14.33333,-14.33333h114.66667c7.91917,0 14.33333,6.41417 14.33333,14.33333v0c0,7.91917 -6.41417,14.33333 -14.33333,14.33333z"></path></g></g></svg>